<svg width="32" height="33" viewBox="0 0 32 33" fill="none" xmlns="http://www.w3.org/2000/svg">
<path d="M21.3333 11.7001L9.49995 23.5668C9.23328 23.8334 8.9164 23.9668 8.54928 23.9668C8.18217 23.9668 7.86573 23.8334 7.59995 23.5668C7.33328 23.3001 7.19995 22.9832 7.19995 22.6161C7.19995 22.249 7.33328 21.9325 7.59995 21.6668L19.4666 9.83342H9.33328C8.95551 9.83342 8.63862 9.70542 8.38262 9.44942C8.12662 9.19342 7.99906 8.87697 7.99995 8.50009C7.99995 8.12231 8.12795 7.80542 8.38395 7.54942C8.63995 7.29342 8.9564 7.16586 9.33328 7.16675H22.6666C23.0444 7.16675 23.3613 7.29475 23.6173 7.55075C23.8733 7.80675 24.0008 8.1232 24 8.50009V21.8334C24 22.2112 23.872 22.5281 23.616 22.7841C23.36 23.0401 23.0435 23.1676 22.6666 23.1668C22.2888 23.1668 21.972 23.0388 21.716 22.7828C21.46 22.5268 21.3324 22.2103 21.3333 21.8334V11.7001Z" fill="white"/>
</svg>
