<svg width="52" height="52" viewBox="0 0 52 52" fill="none" xmlns="http://www.w3.org/2000/svg">
<path d="M2.09543 18.2329L26 0.865247L49.9046 18.2329L40.7738 46.3344H11.2262L2.09543 18.2329Z" stroke="#F4761C" stroke-width="1.4"/>
<path d="M26 26C28.7614 26 31 23.7614 31 21C31 18.2386 28.7614 16 26 16C23.2386 16 21 18.2386 21 21C21 23.7614 23.2386 26 26 26ZM26 26C28.1217 26 30.1566 26.8429 31.6569 28.3431C33.1571 29.8434 34 31.8783 34 34M26 26C23.8783 26 21.8434 26.8429 20.3431 28.3431C18.8429 29.8434 18 31.8783 18 34" stroke="#F4761C" stroke-width="2" stroke-linecap="round" stroke-linejoin="round"/>
</svg>
