<svg width="27" height="27" viewBox="0 0 27 27" fill="none" xmlns="http://www.w3.org/2000/svg">
<path d="M24.66 18.8437C24.2888 21.8362 21.8363 24.2887 18.8438 24.6599C17.0325 24.8849 15.345 24.3899 14.0288 23.4224C13.275 22.8712 13.455 21.7012 14.355 21.4312C17.7413 20.4074 20.4075 17.7299 21.4425 14.3437C21.7125 13.4549 22.8825 13.2749 23.4338 14.0174C24.39 15.3449 24.885 17.0324 24.66 18.8437Z" fill="#F4761C"/>
<path d="M11.2387 2.25C6.2775 2.25 2.25 6.2775 2.25 11.2387C2.25 16.2 6.2775 20.2275 11.2387 20.2275C16.2 20.2275 20.2275 16.2 20.2275 11.2387C20.2162 6.2775 16.2 2.25 11.2387 2.25ZM10.1813 9.97875L12.8925 10.9237C13.8713 11.2725 14.3438 11.9587 14.3438 13.0162C14.3438 14.2312 13.3763 15.2325 12.195 15.2325H12.0938V15.2887C12.0938 15.75 11.7113 16.1325 11.25 16.1325C10.7887 16.1325 10.4062 15.75 10.4062 15.2887V15.2212C9.1575 15.165 8.15625 14.1188 8.15625 12.8138C8.15625 12.3525 8.53875 11.97 9 11.97C9.46125 11.97 9.84375 12.3525 9.84375 12.8138C9.84375 13.2188 10.1363 13.545 10.4963 13.545H12.1838C12.4425 13.545 12.645 13.3087 12.645 13.0162C12.645 12.6225 12.5775 12.6 12.3187 12.51L9.6075 11.565C8.64 11.2275 8.15625 10.5413 8.15625 9.4725C8.15625 8.2575 9.12375 7.25625 10.305 7.25625H10.4062V7.21125C10.4062 6.75 10.7887 6.3675 11.25 6.3675C11.7113 6.3675 12.0938 6.75 12.0938 7.21125V7.27875C13.3425 7.335 14.3438 8.38125 14.3438 9.68625C14.3438 10.1475 13.9613 10.53 13.5 10.53C13.0387 10.53 12.6562 10.1475 12.6562 9.68625C12.6562 9.28125 12.3638 8.955 12.0037 8.955H10.3162C10.0575 8.955 9.855 9.19125 9.855 9.48375C9.84375 9.86625 9.91125 9.88875 10.1813 9.97875Z" fill="#F4761C"/>
</svg>
