<svg width="52" height="52" viewBox="0 0 52 52" fill="none" xmlns="http://www.w3.org/2000/svg">
<path d="M2.09543 18.2329L26 0.865247L49.9046 18.2329L40.7738 46.3344H11.2262L2.09543 18.2329Z" stroke="#F4761C" stroke-width="1.4"/>
<path fill-rule="evenodd" clip-rule="evenodd" d="M19.333 22.6665C18.8728 22.6665 18.4997 23.0396 18.4997 23.4998V31.8332C18.4997 32.2934 18.8728 32.6665 19.333 32.6665H32.6663C33.1266 32.6665 33.4997 32.2934 33.4997 31.8332V23.4998C33.4997 23.0396 33.1266 22.6665 32.6663 22.6665H19.333ZM16.833 23.4998C16.833 22.1191 17.9523 20.9998 19.333 20.9998H32.6663C34.0471 20.9998 35.1663 22.1191 35.1663 23.4998V31.8332C35.1663 33.2139 34.0471 34.3332 32.6663 34.3332H19.333C17.9523 34.3332 16.833 33.2139 16.833 31.8332V23.4998Z" fill="#F4761C"/>
<path fill-rule="evenodd" clip-rule="evenodd" d="M22.5652 18.3987C23.0341 17.9299 23.67 17.6665 24.333 17.6665H27.6663C28.3294 17.6665 28.9653 17.9299 29.4341 18.3987C29.9029 18.8676 30.1663 19.5035 30.1663 20.1665V33.4998C30.1663 33.9601 29.7932 34.3332 29.333 34.3332C28.8728 34.3332 28.4997 33.9601 28.4997 33.4998V20.1665C28.4997 19.9455 28.4119 19.7335 28.2556 19.5772C28.0993 19.421 27.8874 19.3332 27.6663 19.3332H24.333C24.112 19.3332 23.9 19.421 23.7438 19.5772C23.5875 19.7335 23.4997 19.9455 23.4997 20.1665V33.4998C23.4997 33.9601 23.1266 34.3332 22.6663 34.3332C22.2061 34.3332 21.833 33.9601 21.833 33.4998V20.1665C21.833 19.5035 22.0964 18.8676 22.5652 18.3987Z" fill="#F4761C"/>
</svg>
