<svg width="15" height="26" viewBox="0 0 15 26" fill="none" xmlns="http://www.w3.org/2000/svg">
<path d="M13.9516 5.6055L13.9909 18.6021C13.9958 20.1942 13.3679 21.7231 12.2455 22.8524C11.123 23.9816 9.59798 24.6187 8.00581 24.6236C6.41363 24.6284 4.88475 24.0005 3.7555 22.8781C2.62625 21.7557 1.98913 20.2306 1.98431 18.6384L1.94493 5.64188C1.94172 4.58043 2.36029 3.56117 3.10858 2.80834C3.85686 2.05551 4.87356 1.63076 5.93501 1.62754C6.99647 1.62433 8.01572 2.0429 8.76855 2.79119C9.52139 3.53947 9.94613 4.55617 9.94935 5.61763L9.98167 18.6213C9.98328 19.152 9.77399 19.6616 9.39985 20.0381C9.02571 20.4145 8.51736 20.6268 7.98663 20.6284C7.45591 20.6301 6.94628 20.4208 6.56986 20.0466C6.19345 19.6725 5.98107 19.1641 5.97947 18.6334L5.95018 6.63384" stroke="#213343" stroke-width="2" stroke-linecap="round" stroke-linejoin="round"/>
</svg>
