<svg width="19" height="19" viewBox="0 0 19 19" fill="none" xmlns="http://www.w3.org/2000/svg">
<path d="M9.3286 1.07625C9.40633 0.947084 9.59359 0.947084 9.67132 1.07625L12.3227 5.48193C12.3506 5.52834 12.3962 5.56143 12.4489 5.57365L17.4583 6.73383C17.6052 6.76784 17.663 6.94594 17.5642 7.05978L14.1935 10.9428C14.158 10.9837 14.1406 11.0373 14.1453 11.0912L14.5899 16.2139C14.6029 16.3641 14.4514 16.4742 14.3126 16.4154L9.57798 14.4096C9.52811 14.3884 9.47181 14.3884 9.42194 14.4096L4.68733 16.4154C4.54852 16.4742 4.39703 16.3641 4.41006 16.2139L4.85465 11.0912C4.85933 11.0373 4.84193 10.9837 4.80643 10.9428L1.4357 7.05978C1.33687 6.94594 1.39474 6.76784 1.5416 6.73383L6.55098 5.57365C6.60374 5.56143 6.64929 5.52834 6.67722 5.48193L9.3286 1.07625Z" fill="#DEBE1A" stroke="#DEBE1A"/>
</svg>
