<svg width="13" height="12" viewBox="0 0 13 12" fill="none" xmlns="http://www.w3.org/2000/svg">
<path fill-rule="evenodd" clip-rule="evenodd" d="M0.120117 5.19215C0.120117 2.61984 2.8655 0.541748 6.2405 0.541748C9.61551 0.541748 12.3609 2.61984 12.3609 5.19215C12.3609 6.792 11.1447 8.37099 9.85577 9.52037C9.2035 10.102 8.51119 10.5931 7.90053 10.9423C7.59569 11.1166 7.3027 11.2605 7.03823 11.3627C6.7903 11.4584 6.50717 11.5417 6.2405 11.5417C5.97384 11.5417 5.69071 11.4584 5.44278 11.3627C5.17831 11.2605 4.88532 11.1166 4.58048 10.9423C3.96981 10.5931 3.27751 10.102 2.62524 9.52037C1.3363 8.37099 0.120117 6.792 0.120117 5.19215ZM6.2405 6.57834C5.08157 6.57834 4.14208 5.85763 4.14208 4.96858C4.14208 4.07954 5.08157 3.35883 6.2405 3.35883C7.39942 3.35883 8.33892 4.07954 8.33892 4.96858C8.33892 5.85763 7.39942 6.57834 6.2405 6.57834Z" fill="#F4761C"/>
</svg>
