<svg width="310" height="178" viewBox="0 0 310 178" fill="none" xmlns="http://www.w3.org/2000/svg">
<path d="M3.18515 175.667L31.1563 175.867C34.0196 175.887 36.5266 174.069 37.3745 171.357L51.2083 127.107C52.0562 124.395 54.5632 122.577 57.4265 122.597L69.5616 122.684C72.2752 122.703 74.6853 121.068 75.6469 118.556L97.9663 60.2508C98.7847 58.1128 100.836 56.7216 103.145 56.7381V56.7381C105.412 56.7543 107.483 58.1236 108.406 60.216L109.037 61.6471C110.122 64.1056 112.555 65.7147 115.218 65.7337L118.815 65.7593C121.589 65.7791 124.101 67.522 125.114 70.129L149.995 134.192C150.713 136.04 152.493 137.276 154.46 137.29V137.29C156.305 137.303 157.961 136.236 158.693 134.561L167.21 115.074C168.988 111.005 174.254 109.935 177.645 112.954L180.406 115.412C181.643 116.514 183.233 117.13 184.869 117.142L206.923 117.299C209.586 117.318 211.962 115.743 212.958 113.3L252.713 15.7222C254.874 10.4184 262.38 10.3807 264.862 15.6613L308.176 107.839" stroke="#F4761C" stroke-width="2.84366" stroke-linecap="round" stroke-linejoin="round"/>
</svg>
